<mxfile host="app.diagrams.net" modified="2021-10-14T02:55:17.486Z" agent="5.0 (Windows NT 10.0; Win64; x64) AppleWebKit/537.36 (KHTML, like Gecko) Chrome/94.0.4606.81 Safari/537.36 Edg/94.0.992.47" etag="-PW07O1AsSLkoOYFR5X-" version="15.5.2" type="github">
  <diagram id="QLVRK8AyidgUii33wijI" name="Page-1">
    <mxGraphModel dx="1767" dy="1136" grid="1" gridSize="10" guides="1" tooltips="1" connect="1" arrows="1" fold="1" page="1" pageScale="1" pageWidth="850" pageHeight="1100" math="0" shadow="0">
      <root>
        <mxCell id="0" />
        <mxCell id="1" parent="0" />
        <mxCell id="RLVNmg_ecUz_Jmnr9UBg-1" value="fish" style="rounded=0;whiteSpace=wrap;html=1;" vertex="1" parent="1">
          <mxGeometry x="440" y="330" width="120" height="60" as="geometry" />
        </mxCell>
      </root>
    </mxGraphModel>
  </diagram>
</mxfile>
